<?xml version="1.0" encoding="UTF-8"?>
<svg height="128px" viewBox="0 0 128 128" width="128px" xmlns="http://www.w3.org/2000/svg">
    <path d="m 123.503906 64 c 0 32.863281 -26.640625 59.503906 -59.503906 59.503906 s -59.503906 -26.640625 -59.503906 -59.503906 s 26.640625 -59.503906 59.503906 -59.503906 s 59.503906 26.640625 59.503906 59.503906 z m 0 0" fill="#0000ff"/>
    <g fill="none" stroke="#ffffff" stroke-linecap="round" stroke-width="7.98815">
        <path d="m 63.303774 235.503225 c -3.0823 -2.443747 0.779934 -6.675829 3.216449 -7.5778 c 7.821181 -2.905655 14.672124 5.046665 15.689158 12.08141 c 2.052787 14.213055 -11.539908 24.905618 -24.630325 25.436189 c -4.610971 0.18726 -9.237542 -0.689743 -13.495983 -2.449989" transform="matrix(1.252109 0 0 1.2516 -15.263206 -230.755871)"/>
        <path d="m 63.303755 235.503211 c -3.080534 -2.445978 0.779249 -6.674681 3.213766 -7.578594 c 7.822552 -2.905694 14.673484 5.047944 15.689676 12.082126 c 2.053019 14.213623 -11.538156 24.905251 -24.625947 25.43653 c -4.611071 0.187342 -9.240612 -0.691906 -13.49862 -2.452125" transform="matrix(-0.626054 -1.084358 1.083917 -0.6258 -151.63446 280.021851)"/>
        <path d="m 63.303797 235.503245 c -3.081788 -2.44369 0.780585 -6.674662 3.215561 -7.580136 c 7.823394 -2.904159 14.671211 5.047686 15.688896 12.085582 c 2.051834 14.210436 -11.539349 24.903917 -24.62784 25.432567 c -4.609391 0.19009 -9.238249 -0.689725 -13.499151 -2.448772" transform="matrix(-0.626054 1.084358 -1.083917 -0.6258 358.897705 142.733978)"/>
    </g>
</svg>
