<?xml version="1.0" encoding="UTF-8"?>
<svg height="16px" viewBox="0 0 16 16" width="16px" xmlns="http://www.w3.org/2000/svg">
    <g fill-rule="evenodd">
        <path d="m 8.503906 5.324219 c -0.296875 0.015625 -0.597656 0.074219 -0.902344 0.183593 c -0.554687 0.207032 -0.957031 0.5625 -1.28125 1.101563 c -0.160156 0.265625 -0.296874 0.601563 -0.277343 1.011719 c 0.019531 0.40625 0.25 0.859375 0.59375 1.128906 c 0.386719 0.308594 0.953125 0.242188 1.257812 -0.144531 c 0.257813 -0.324219 0.261719 -0.785157 0.003907 -1.109375 c 0.101562 -0.128906 0.335937 -0.3125 0.328124 -0.308594 c 0.546876 -0.203125 0.972657 -0.054688 1.425782 0.351562 c 0.457031 0.402344 0.816406 1.09375 0.898437 1.648438 c 0.183594 1.285156 -0.316406 2.371094 -1.21875 3.222656 c -0.90625 0.855469 -2.222656 1.410156 -3.460937 1.460938 c -0.894532 0.035156 -1.808594 -0.136719 -2.648438 -0.484375 c -0.457031 -0.1875 -0.980468 0.027343 -1.171875 0.484375 c -0.1875 0.457031 0.03125 0.984375 0.488281 1.171875 c 1.070313 0.441406 2.234376 0.664062 3.40625 0.617187 c 1.699219 -0.070312 3.378907 -0.773437 4.617188 -1.945312 s 2.035156 -2.882813 1.761719 -4.785156 c -0.148438 -1.023438 -0.671875 -2.011719 -1.480469 -2.730469 c -0.605469 -0.539063 -1.445312 -0.910157 -2.339844 -0.875 z m 0 0"/>
        <path d="m 4.179688 8.273438 c 0.160156 0.25 0.363281 0.484374 0.609374 0.691406 c 0.457032 0.378906 0.96875 0.550781 1.59375 0.558594 c 0.3125 0.007812 0.667969 -0.042969 1.015626 -0.261719 c 0.34375 -0.222657 0.617187 -0.648438 0.683593 -1.082031 c 0.070313 -0.488282 -0.265625 -0.945313 -0.757812 -1.015626 c -0.410157 -0.0625 -0.808594 0.167969 -0.960938 0.550782 c -0.164062 -0.027344 -0.4375 -0.136719 -0.429687 -0.132813 c -0.453125 -0.371093 -0.535156 -0.808593 -0.414063 -1.40625 c 0.125 -0.597656 0.542969 -1.253906 0.980469 -1.601562 c 1.023438 -0.804688 2.210938 -0.914063 3.402344 -0.558594 s 2.332031 1.21875 2.992187 2.265625 c 0.480469 0.757812 0.789063 1.636719 0.90625 2.539062 c 0.066407 0.488282 0.515625 0.835938 1.007813 0.769532 c 0.488281 -0.066406 0.835937 -0.515625 0.769531 -1.007813 c -0.152344 -1.144531 -0.542969 -2.265625 -1.167969 -3.257812 c -0.910156 -1.4375 -2.359375 -2.539063 -3.996094 -3.023438 c -1.632812 -0.488281 -3.511718 -0.324219 -5.019531 0.863281 c -0.8125 0.640626 -1.410156 1.589844 -1.628906 2.648438 c -0.164063 0.796875 -0.0625 1.707031 0.414063 2.460938 z m 0 0"/>
        <path d="m 8.894531 10.546875 c 0.140625 -0.265625 0.238281 -0.554687 0.292969 -0.875 c 0.101562 -0.582031 -0.007812 -1.113281 -0.308594 -1.660156 c -0.152344 -0.273438 -0.375 -0.554688 -0.738281 -0.746094 c -0.363281 -0.1875 -0.871094 -0.210937 -1.277344 -0.050781 c -0.460937 0.183594 -0.683593 0.703125 -0.503906 1.164062 c 0.152344 0.386719 0.550781 0.617188 0.960937 0.554688 c 0.058594 0.15625 0.101563 0.449218 0.101563 0.441406 c -0.097656 0.574219 -0.4375 0.867188 -1.015625 1.058594 s -1.355469 0.160156 -1.875 -0.046875 c -1.207031 -0.484375 -1.898438 -1.457031 -2.183594 -2.667969 c -0.289062 -1.210938 -0.109375 -2.628906 0.464844 -3.722656 c 0.417969 -0.796875 1.023438 -1.5 1.742188 -2.054688 c 0.394531 -0.300781 0.46875 -0.863281 0.167968 -1.257812 c -0.304687 -0.390625 -0.867187 -0.464844 -1.257812 -0.164063 c -0.917969 0.707031 -1.691406 1.605469 -2.238282 2.644531 c -0.789062 1.503907 -1.019531 3.308594 -0.625 4.96875 c 0.398438 1.660157 1.480469 3.203126 3.261719 3.917969 c 0.960938 0.382813 2.082031 0.425781 3.109375 0.085938 c 0.769532 -0.257813 1.511719 -0.800781 1.921875 -1.589844 z m 0 0"/>
    </g>
    <path d="m 63.303755 235.503211 c -3.080534 -2.445978 0.779249 -6.674681 3.213766 -7.578594 c 7.822552 -2.905694 14.673484 5.047944 15.689676 12.082126 c 2.053019 14.213623 -11.538156 24.905251 -24.625947 25.43653 c -4.611071 0.187342 -9.240612 -0.691906 -13.49862 -2.452125" fill="none" stroke="#ffffff" stroke-linecap="round" stroke-width="7.98815" transform="matrix(-0.626054 -1.084358 1.083917 -0.6258 -311.63446 280.021851)"/>
</svg>
